<?xml version="1.0" encoding="UTF-8"?>
<svg xmlns:dc="http://purl.org/dc/elements/1.1/" xmlns:cc="http://creativecommons.org/ns#" xmlns:rdf="http://www.w3.org/1999/02/22-rdf-syntax-ns#" xmlns:svg="http://www.w3.org/2000/svg" xmlns="http://www.w3.org/2000/svg" xmlns:sodipodi="http://sodipodi.sourceforge.net/DTD/sodipodi-0.dtd" xmlns:inkscape="http://www.inkscape.org/namespaces/inkscape" viewBox="0 0 1545.558 650.00519" version="1.1" id="svg130" sodipodi:docname="trpl04-05.svg" width="1545.558" height="650.00519" inkscape:version="1.0.2 (e86c870879, 2021-01-15)">
  <metadata id="metadata136">
    <rdf:RDF>
      <cc:Work rdf:about="">
        <dc:format>image/svg+xml</dc:format>
        <dc:type rdf:resource="http://purl.org/dc/dcmitype/StillImage"/>
      </cc:Work>
    </rdf:RDF>
  </metadata>
  <defs id="defs134"/>
  <sodipodi:namedview pagecolor="#ffffff" bordercolor="#666666" borderopacity="1" objecttolerance="10" gridtolerance="10" guidetolerance="10" inkscape:pageopacity="0" inkscape:pageshadow="2" inkscape:window-width="1882" inkscape:window-height="1376" id="namedview132" showgrid="false" inkscape:zoom="0.442" inkscape:cx="687.65904" inkscape:cy="141.17704" inkscape:window-x="678" inkscape:window-y="27" inkscape:window-maximized="0" inkscape:current-layer="svg130" inkscape:document-rotation="0"/>
  <polygon fill="#ffffff" stroke="transparent" points="357,-152 357,4 -4,4 -4,-152 " id="polygon4" transform="matrix(4.1667,0,0,4.1667,58.046125,633.3384)"/>
  <g id="edge2" class="edge" transform="matrix(4.1667,0,0,4.1667,86.046125,659.3384)">
    <title id="title64">table0:c-&gt;table1:borrowee</title>
    <path fill="none" stroke="#000000" d="m 62,-94 c 0,0 31.1184,0 59.9514,0" id="path66"></path>
    <polygon fill="#000000" stroke="#000000" points="122,-97.5001 132,-94 122,-90.5001 " id="polygon68"/>
  </g>
  <g id="edge1" class="edge" transform="matrix(4.1667,0,0,4.1667,86.046125,659.3384)">
    <title id="title122">table1:c-&gt;table2:pointee</title>
    <path fill="none" stroke="#000000" d="m 202,-94 c 0,0 31.3406,0 60.3797,0" id="path124"></path>
    <polygon fill="#000000" stroke="#000000" points="262.5,-97.5001 272.5,-94 262.5,-90.5001 " id="polygon126"/>
  </g>
  <g id="g1407" transform="translate(498.20267,1117.3697)">
    <polyline fill="none" stroke="#000000" points="8,-124 96,-124 " id="polyline8-0" transform="matrix(4.1667,0,0,4.1667,110.14812,-456.68312)"/>
    <text text-anchor="start" x="300.88257" y="-997.52081" font-family="Times, serif" font-size="58.3338px" fill="#000000" id="text10-4" style="stroke-width:4.1667">s1</text>
    <polygon fill="none" stroke="#000000" points="8,-124 60,-124 60,-104 8,-104 " id="polygon12-4" transform="matrix(4.1667,0,0,4.1667,110.14812,-456.68312)"/>
    <text text-anchor="start" x="203.45616" y="-918.54187" font-family="Times, serif" font-size="58.3338px" fill="#000000" id="text14-4" style="stroke-width:4.1667">nom</text>
    <polygon fill="none" stroke="#000000" points="60,-124 96,-124 96,-104 60,-104 " id="polygon16-4" transform="matrix(4.1667,0,0,4.1667,110.14812,-456.68312)"/>
    <text text-anchor="start" x="371.98898" y="-914.18677" font-family="Times, serif" font-size="58.3338px" fill="#000000" id="text18-7" style="stroke-width:4.1667">valor</text>
    <polygon fill="none" stroke="#000000" points="8,-104 60,-104 60,-84 8,-84 " id="polygon20-6" transform="matrix(4.1667,0,0,4.1667,110.14812,-456.68312)"/>
    <text text-anchor="start" x="219.41608" y="-830.85278" font-family="Times, serif" font-size="58.3338px" fill="#000000" id="text22-3" style="stroke-width:4.1667">ptr</text>
    <polygon fill="none" stroke="#000000" points="60,-104 96,-104 96,-84 60,-84 " id="polygon24-1" transform="matrix(4.1667,0,0,4.1667,110.14812,-456.68312)"/>
    <polygon fill="none" stroke="#000000" points="8,-84 60,-84 60,-64 8,-64 " id="polygon26-7" transform="matrix(4.1667,0,0,4.1667,110.14812,-456.68312)"/>
    <text text-anchor="start" x="202.18315" y="-747.5188" font-family="Times, serif" font-size="58.3338px" fill="#000000" id="text28-5" style="stroke-width:4.1667">long</text>
    <polygon fill="none" stroke="#000000" points="60,-84 96,-84 96,-64 60,-64 " id="polygon30-9" transform="matrix(4.1667,0,0,4.1667,110.14812,-456.68312)"/>
    <text text-anchor="start" x="420.56726" y="-747.5188" font-family="Times, serif" font-size="58.3338px" fill="#000000" id="text32-6" style="stroke-width:4.1667">4</text>
    <polygon fill="none" stroke="#000000" points="8,-64 60,-64 60,-44 8,-44 " id="polygon34-2" transform="matrix(4.1667,0,0,4.1667,110.14812,-456.68312)"/>
    <text text-anchor="start" x="146.98656" y="-665.25183" font-family="Times, serif" font-size="58.3338px" fill="#000000" id="text36-1" style="stroke-width:4.1667">capacitat</text>
    <polygon fill="none" stroke="#000000" points="60,-64 96,-64 96,-44 60,-44 " id="polygon38-7" transform="matrix(4.1667,0,0,4.1667,110.14812,-456.68312)"/>
    <text text-anchor="start" x="420.56726" y="-664.18475" font-family="Times, serif" font-size="58.3338px" fill="#000000" id="text40-8" style="stroke-width:4.1667">4</text>
  </g>
  <g id="node2-1" class="node" transform="matrix(4.1667,0,0,4.1667,604.32479,658.06693)">
    <title id="title43-3">table1</title>
    <polygon fill="none" stroke="#000000" points="185.5,-124 185.5,-104 148.5,-104 148.5,-124 " id="polygon45-3"/>
    <text text-anchor="start" x="151.4482" y="-109.8" font-family="Times, serif" font-size="14px" fill="#000000" id="text47-8">índex</text>
    <polygon fill="none" stroke="#000000" points="221.5,-124 221.5,-104 185.5,-104 185.5,-124 " id="polygon49-6"/>
    <text text-anchor="start" x="188.34129" y="-109.8" font-family="Times, serif" font-size="14px" fill="#000000" id="text51-0">valor</text>
    <polygon fill="none" stroke="#000000" points="185.5,-104 185.5,-84 148.5,-84 148.5,-104 " id="polygon53-4"/>
    <text text-anchor="start" x="163.5" y="-89.800003" font-family="Times, serif" font-size="14px" fill="#000000" id="text55-8">0</text>
    <polygon fill="none" stroke="#000000" points="221.5,-104 221.5,-84 185.5,-84 185.5,-104 " id="polygon57-8"/>
    <text text-anchor="start" x="200" y="-89.800003" font-family="Times, serif" font-size="14px" fill="#000000" id="text59-8">h</text>
    <polygon fill="none" stroke="#000000" points="185.5,-84 185.5,-64 148.5,-64 148.5,-84 " id="polygon61-9"/>
    <text text-anchor="start" x="163.5" y="-69.800003" font-family="Times, serif" font-size="14px" fill="#000000" id="text63-7">1</text>
    <polygon fill="none" stroke="#000000" points="221.5,-84 221.5,-64 185.5,-64 185.5,-84 " id="polygon65-7"/>
    <text text-anchor="start" x="200.3931" y="-69.800003" font-family="Times, serif" font-size="14px" fill="#000000" id="text67-6">o</text>
    <polygon fill="none" stroke="#000000" points="185.5,-64 185.5,-44 148.5,-44 148.5,-64 " id="polygon69-4"/>
    <text text-anchor="start" x="163.5" y="-49.799999" font-family="Times, serif" font-size="14px" fill="#000000" id="text71-3">2</text>
    <polygon fill="none" stroke="#000000" points="221.5,-64 221.5,-44 185.5,-44 185.5,-64 " id="polygon73-0"/>
    <text text-anchor="start" x="201.55521" y="-49.799999" font-family="Times, serif" font-size="14px" fill="#000000" id="text75-3">l</text>
    <polygon fill="none" stroke="#000000" points="185.5,-44 185.5,-24 148.5,-24 148.5,-44 " id="polygon77-0"/>
    <text text-anchor="start" x="163.5" y="-29.799999" font-family="Times, serif" font-size="14px" fill="#000000" id="text79-9">3</text>
    <polygon fill="none" stroke="#000000" points="221.5,-44 221.5,-24 185.5,-24 185.5,-44 " id="polygon81-2"/>
    <text text-anchor="start" x="201.55521" y="-29.799999" font-family="Times, serif" font-size="14px" fill="#000000" id="text83-5">a</text>
  </g>
  <g id="g1418" transform="translate(63.365291,417.61137)">
    <polyline fill="none" stroke="#000000" points="8,-124 96,-124 " id="polyline8-0-3" transform="matrix(4.1667,0,0,4.1667,-66.615541,233.72261)"/>
    <text text-anchor="start" x="149.34961" y="-310.36258" font-family="Times, serif" font-size="58.3338px" fill="#000000" id="text10-4-0" style="stroke-width:4.1667">s</text>
    <polygon fill="none" stroke="#000000" points="8,-124 60,-124 60,-104 8,-104 " id="polygon12-4-7" transform="matrix(4.1667,0,0,4.1667,-66.615541,233.72261)"/>
    <text text-anchor="start" x="26.692499" y="-228.13615" font-family="Times, serif" font-size="58.3338px" fill="#000000" id="text14-4-8" style="stroke-width:4.1667">nom</text>
    <polygon fill="none" stroke="#000000" points="60,-124 96,-124 96,-104 60,-104 " id="polygon16-4-6" transform="matrix(4.1667,0,0,4.1667,-66.615541,233.72261)"/>
    <text text-anchor="start" x="195.22533" y="-223.78105" font-family="Times, serif" font-size="58.3338px" fill="#000000" id="text18-7-8" style="stroke-width:4.1667">valor</text>
    <polygon fill="none" stroke="#000000" points="8,-104 60,-104 60,-84 8,-84 " id="polygon20-6-8" transform="matrix(4.1667,0,0,4.1667,-66.615541,233.72261)"/>
    <text text-anchor="start" x="42.652416" y="-140.44707" font-family="Times, serif" font-size="58.3338px" fill="#000000" id="text22-3-4" style="stroke-width:4.1667">ptr</text>
    <polygon fill="none" stroke="#000000" points="60,-104 96,-104 96,-84 60,-84 " id="polygon24-1-3" transform="matrix(4.1667,0,0,4.1667,-66.615541,233.72261)"/>
  </g>
</svg>