<?xml version="1.0" encoding="UTF-8" standalone="no"?>
<svg
   xmlns:dc="http://purl.org/dc/elements/1.1/"
   xmlns:cc="http://creativecommons.org/ns#"
   xmlns:rdf="http://www.w3.org/1999/02/22-rdf-syntax-ns#"
   xmlns:svg="http://www.w3.org/2000/svg"
   xmlns="http://www.w3.org/2000/svg"
   xmlns:sodipodi="http://sodipodi.sourceforge.net/DTD/sodipodi-0.dtd"
   xmlns:inkscape="http://www.inkscape.org/namespaces/inkscape"
   viewBox="0 0 987.50787 1162.5093"
   version="1.1"
   id="svg186"
   sodipodi:docname="trpl04-06.svg"
   width="987.50787"
   height="1162.5093"
   inkscape:version="1.0.2 (e86c870879, 2021-01-15)">
  <metadata
     id="metadata192">
    <rdf:RDF>
      <cc:Work
         rdf:about="">
        <dc:format>image/svg+xml</dc:format>
        <dc:type
           rdf:resource="http://purl.org/dc/dcmitype/StillImage" />
      </cc:Work>
    </rdf:RDF>
  </metadata>
  <defs
     id="defs190" />
  <sodipodi:namedview
     pagecolor="#ffffff"
     bordercolor="#666666"
     borderopacity="1"
     objecttolerance="10"
     gridtolerance="10"
     guidetolerance="10"
     inkscape:pageopacity="0"
     inkscape:pageshadow="2"
     inkscape:window-width="1920"
     inkscape:window-height="1163"
     id="namedview188"
     showgrid="false"
     inkscape:zoom="0.39405786"
     inkscape:cx="377.87911"
     inkscape:cy="634.58087"
     inkscape:window-x="2560"
     inkscape:window-y="0"
     inkscape:window-maximized="1"
     inkscape:current-layer="svg186" />
  <polygon
     fill="#ffffff"
     stroke="transparent"
     points="-4,4 -4,-275 233,-275 233,4 "
     id="polygon4"
     transform="matrix(4.1667,0,0,4.1667,16.6668,1145.8425)" />
  <text
     text-anchor="start"
     x="164.57951"
     y="535.50494"
     font-family="Times, serif"
     font-size="58.3338px"
     fill="#000000"
     id="text10"
     style="stroke-width:4.1667">mon</text>
  <polygon
     fill="none"
     stroke="#000000"
     points="185.5,-244 185.5,-224 148.5,-224 148.5,-244 "
     id="polygon37"
     transform="matrix(4.1667,0,0,4.1667,16.6668,1145.8425)" />
  <text
     text-anchor="start"
     x="647.70599"
     y="188.33482"
     font-family="Times, serif"
     font-size="58.3338px"
     fill="#000000"
     id="text39"
     style="stroke-width:4.1667">índex</text>
  <polygon
     fill="none"
     stroke="#000000"
     points="221.5,-244 221.5,-224 185.5,-224 185.5,-244 "
     id="polygon41"
     transform="matrix(4.1667,0,0,4.1667,16.6668,1145.8425)" />
  <text
     text-anchor="start"
     x="801.42847"
     y="188.33482"
     font-family="Times, serif"
     font-size="58.3338px"
     fill="#000000"
     id="text43"
     style="stroke-width:4.1667">valor</text>
  <polygon
     fill="none"
     stroke="#000000"
     points="185.5,-224 185.5,-204 148.5,-204 148.5,-224 "
     id="polygon45"
     transform="matrix(4.1667,0,0,4.1667,16.6668,1145.8425)" />
  <text
     text-anchor="start"
     x="697.92224"
     y="271.66882"
     font-family="Times, serif"
     font-size="58.3338px"
     fill="#000000"
     id="text47"
     style="stroke-width:4.1667">0</text>
  <polygon
     fill="none"
     stroke="#000000"
     points="221.5,-224 221.5,-204 185.5,-204 185.5,-224 "
     id="polygon49"
     transform="matrix(4.1667,0,0,4.1667,16.6668,1145.8425)" />
  <text
     text-anchor="start"
     x="849.1745"
     y="271.66882"
     font-family="Times, serif"
     font-size="58.3338px"
     fill="#000000"
     id="text51"
     style="stroke-width:4.1667">h</text>
  <polygon
     fill="none"
     stroke="#000000"
     points="185.5,-204 185.5,-184 148.5,-184 148.5,-204 "
     id="polygon53"
     transform="matrix(4.1667,0,0,4.1667,16.6668,1145.8425)" />
  <text
     text-anchor="start"
     x="697.92224"
     y="355.00284"
     font-family="Times, serif"
     font-size="58.3338px"
     fill="#000000"
     id="text55"
     style="stroke-width:4.1667">1</text>
  <polygon
     fill="none"
     stroke="#000000"
     points="221.5,-204 221.5,-184 185.5,-184 185.5,-204 "
     id="polygon57"
     transform="matrix(4.1667,0,0,4.1667,16.6668,1145.8425)" />
  <text
     text-anchor="start"
     x="849.08698"
     y="355.00284"
     font-family="Times, serif"
     font-size="58.3338px"
     fill="#000000"
     id="text59"
     style="stroke-width:4.1667">o</text>
  <polygon
     fill="none"
     stroke="#000000"
     points="185.5,-184 185.5,-164 148.5,-164 148.5,-184 "
     id="polygon61"
     transform="matrix(4.1667,0,0,4.1667,16.6668,1145.8425)" />
  <text
     text-anchor="start"
     x="697.92224"
     y="438.33682"
     font-family="Times, serif"
     font-size="58.3338px"
     fill="#000000"
     id="text63"
     style="stroke-width:4.1667">2</text>
  <polygon
     fill="none"
     stroke="#000000"
     points="221.5,-184 221.5,-164 185.5,-164 185.5,-184 "
     id="polygon65"
     transform="matrix(4.1667,0,0,4.1667,16.6668,1145.8425)" />
  <text
     text-anchor="start"
     x="855.59119"
     y="438.33682"
     font-family="Times, serif"
     font-size="58.3338px"
     fill="#000000"
     id="text67"
     style="stroke-width:4.1667">l</text>
  <polygon
     fill="none"
     stroke="#000000"
     points="185.5,-164 185.5,-144 148.5,-144 148.5,-164 "
     id="polygon69"
     transform="matrix(4.1667,0,0,4.1667,16.6668,1145.8425)" />
  <text
     text-anchor="start"
     x="697.92224"
     y="521.67084"
     font-family="Times, serif"
     font-size="58.3338px"
     fill="#000000"
     id="text71"
     style="stroke-width:4.1667">3</text>
  <polygon
     fill="none"
     stroke="#000000"
     points="221.5,-164 221.5,-144 185.5,-144 185.5,-164 "
     id="polygon73"
     transform="matrix(4.1667,0,0,4.1667,16.6668,1145.8425)" />
  <text
     text-anchor="start"
     x="849.67029"
     y="521.67084"
     font-family="Times, serif"
     font-size="58.3338px"
     fill="#000000"
     id="text75"
     style="stroke-width:4.1667">a</text>
  <polygon
     fill="none"
     stroke="#000000"
     points="185.5,-144 185.5,-124 148.5,-124 148.5,-144 "
     id="polygon77"
     transform="matrix(4.1667,0,0,4.1667,16.6668,1145.8425)" />
  <text
     text-anchor="start"
     x="697.92224"
     y="605.00482"
     font-family="Times, serif"
     font-size="58.3338px"
     fill="#000000"
     id="text79"
     style="stroke-width:4.1667">4</text>
  <polygon
     fill="none"
     stroke="#000000"
     points="221.5,-144 221.5,-124 185.5,-124 185.5,-144 "
     id="polygon81"
     transform="matrix(4.1667,0,0,4.1667,16.6668,1145.8425)" />
  <polygon
     fill="none"
     stroke="#000000"
     points="185.5,-124 185.5,-104 148.5,-104 148.5,-124 "
     id="polygon85"
     transform="matrix(4.1667,0,0,4.1667,16.6668,1145.8425)" />
  <text
     text-anchor="start"
     x="697.92224"
     y="688.33881"
     font-family="Times, serif"
     font-size="58.3338px"
     fill="#000000"
     id="text87"
     style="stroke-width:4.1667">5</text>
  <polygon
     fill="none"
     stroke="#000000"
     points="221.5,-124 221.5,-104 185.5,-104 185.5,-124 "
     id="polygon89"
     transform="matrix(4.1667,0,0,4.1667,16.6668,1145.8425)" />
  <text
     text-anchor="start"
     x="857.29852"
     y="688.33881"
     font-family="Times, serif"
     font-size="58.3338px"
     fill="#000000"
     id="text91"
     style="stroke-width:4.1667" />
  <polygon
     fill="none"
     stroke="#000000"
     points="185.5,-104 185.5,-84 148.5,-84 148.5,-104 "
     id="polygon93"
     transform="matrix(4.1667,0,0,4.1667,16.6668,1145.8425)" />
  <text
     text-anchor="start"
     x="697.92224"
     y="771.67285"
     font-family="Times, serif"
     font-size="58.3338px"
     fill="#000000"
     id="text95"
     style="stroke-width:4.1667">6</text>
  <polygon
     fill="none"
     stroke="#000000"
     points="221.5,-104 221.5,-84 185.5,-84 185.5,-104 "
     id="polygon97"
     transform="matrix(4.1667,0,0,4.1667,16.6668,1145.8425)" />
  <text
     text-anchor="start"
     x="840.57025"
     y="692.63141"
     font-family="Times, serif"
     font-size="58.3338px"
     fill="#000000"
     id="text99"
     style="stroke-width:4.1667">m</text>
  <polygon
     fill="none"
     stroke="#000000"
     points="185.5,-84 185.5,-64 148.5,-64 148.5,-84 "
     id="polygon101"
     transform="matrix(4.1667,0,0,4.1667,16.6668,1145.8425)" />
  <text
     text-anchor="start"
     x="697.92224"
     y="855.00684"
     font-family="Times, serif"
     font-size="58.3338px"
     fill="#000000"
     id="text103"
     style="stroke-width:4.1667">7</text>
  <polygon
     fill="none"
     stroke="#000000"
     points="221.5,-84 221.5,-64 185.5,-64 185.5,-84 "
     id="polygon105"
     transform="matrix(4.1667,0,0,4.1667,16.6668,1145.8425)" />
  <text
     text-anchor="start"
     x="849.08698"
     y="775.96539"
     font-family="Times, serif"
     font-size="58.3338px"
     fill="#000000"
     id="text107"
     style="stroke-width:4.1667">ó</text>
  <text
     text-anchor="start"
     x="849.02863"
     y="859.29938"
     font-family="Times, serif"
     font-size="58.3338px"
     fill="#000000"
     id="text115"
     style="stroke-width:4.1667">n</text>
  <g
     id="edge1"
     class="edge"
     transform="matrix(4.1667,0,0,4.1667,16.6668,1063.8425)">
    <title
       id="title134">table0:c-&gt;table4:pointee2</title>
    <path
       fill="none"
       stroke="#000000"
       d="m 70,-91 c 0,0 35.7964,-2.4639 68.4948,-2.9258"
       id="path136" />
    <polygon
       fill="#000000"
       stroke="#000000"
       points="138.4743,-97.4257 148.5,-94 138.5263,-90.4259 "
       id="polygon138" />
  </g>
  <g
     id="edge2"
     class="edge"
     transform="matrix(4.1667,0,0,4.1667,16.6668,1145.8425)">
    <title
       id="title178">table3:c-&gt;table4:pointee</title>
    <path
       fill="none"
       stroke="#000000"
       d="m 78,-217 c 0,0 31.3179,2.4006 60.3725,2.9069"
       id="path180" />
    <polygon
       fill="#000000"
       stroke="#000000"
       points="148.5,-214 138.4682,-210.5921 138.5326,-217.5918 "
       id="polygon182" />
  </g>
  <text
     text-anchor="start"
     x="204.82979"
     y="94.360199"
     font-family="Times, serif"
     font-size="58.3338px"
     fill="#000000"
     id="text10-4"
     style="stroke-width:4.1667">s</text>
  <g
     id="g1455"
     transform="translate(-8.361855)">
    <polyline
       fill="none"
       stroke="#000000"
       points="8,-124 96,-124 "
       id="polyline8-0"
       transform="matrix(4.1667,0,0,4.1667,8.16083,635.19788)" />
    <polygon
       fill="none"
       stroke="#000000"
       points="60,-124 60,-104 8,-104 8,-124 "
       id="polygon12-4"
       transform="matrix(4.1667,0,0,4.1667,8.16083,635.19788)" />
    <text
       text-anchor="start"
       x="101.46889"
       y="173.33913"
       font-family="Times, serif"
       font-size="58.3338px"
       fill="#000000"
       id="text14-4"
       style="stroke-width:4.1667">nom</text>
    <polygon
       fill="none"
       stroke="#000000"
       points="96,-124 96,-104 60,-104 60,-124 "
       id="polygon16-4"
       transform="matrix(4.1667,0,0,4.1667,8.16083,635.19788)" />
    <text
       text-anchor="start"
       x="270.00171"
       y="177.69423"
       font-family="Times, serif"
       font-size="58.3338px"
       fill="#000000"
       id="text18-7"
       style="stroke-width:4.1667">valor</text>
    <polygon
       fill="none"
       stroke="#000000"
       points="60,-104 60,-84 8,-84 8,-104 "
       id="polygon20-6"
       transform="matrix(4.1667,0,0,4.1667,8.16083,635.19788)" />
    <text
       text-anchor="start"
       x="117.42879"
       y="261.02823"
       font-family="Times, serif"
       font-size="58.3338px"
       fill="#000000"
       id="text22-3"
       style="stroke-width:4.1667">ptr</text>
    <polygon
       fill="none"
       stroke="#000000"
       points="96,-104 96,-84 60,-84 60,-104 "
       id="polygon24-1"
       transform="matrix(4.1667,0,0,4.1667,8.16083,635.19788)" />
    <polygon
       fill="none"
       stroke="#000000"
       points="60,-84 60,-64 8,-64 8,-84 "
       id="polygon26-7"
       transform="matrix(4.1667,0,0,4.1667,8.16083,635.19788)" />
    <text
       text-anchor="start"
       x="100.19588"
       y="344.36221"
       font-family="Times, serif"
       font-size="58.3338px"
       fill="#000000"
       id="text28-5"
       style="stroke-width:4.1667">long</text>
    <polygon
       fill="none"
       stroke="#000000"
       points="96,-84 96,-64 60,-64 60,-84 "
       id="polygon30-9"
       transform="matrix(4.1667,0,0,4.1667,8.16083,635.19788)" />
    <text
       text-anchor="start"
       x="300.30597"
       y="344.36221"
       font-family="Times, serif"
       font-size="58.3338px"
       fill="#000000"
       id="text32-6"
       style="stroke-width:4.1667">11</text>
    <polygon
       fill="none"
       stroke="#000000"
       points="60,-64 60,-44 8,-44 8,-64 "
       id="polygon34-2"
       transform="matrix(4.1667,0,0,4.1667,8.16083,635.19788)" />
    <text
       text-anchor="start"
       x="44.999279"
       y="426.62918"
       font-family="Times, serif"
       font-size="58.3338px"
       fill="#000000"
       id="text36-1"
       style="stroke-width:4.1667">capacitat</text>
    <polygon
       fill="none"
       stroke="#000000"
       points="96,-64 96,-44 60,-44 60,-64 "
       id="polygon38-7"
       transform="matrix(4.1667,0,0,4.1667,8.16083,635.19788)" />
    <text
       text-anchor="start"
       x="300.30597"
       y="427.69626"
       font-family="Times, serif"
       font-size="58.3338px"
       fill="#000000"
       id="text40-8"
       style="stroke-width:4.1667">11</text>
  </g>
  <g
     id="g1437"
     transform="translate(767.07668,-112.41273)">
    <polyline
       fill="none"
       stroke="#000000"
       points="8,-124 96,-124 "
       id="polyline8-0-3"
       transform="matrix(4.1667,0,0,4.1667,-767.27771,1180.6366)" />
    <polygon
       fill="none"
       stroke="#000000"
       points="60,-104 8,-104 8,-124 60,-124 "
       id="polygon12-4-1"
       transform="matrix(4.1667,0,0,4.1667,-767.27771,1180.6366)" />
    <text
       text-anchor="start"
       x="-673.96967"
       y="718.77789"
       font-family="Times, serif"
       font-size="58.3338px"
       fill="#000000"
       id="text14-4-0"
       style="stroke-width:4.1667">nom</text>
    <polygon
       fill="none"
       stroke="#000000"
       points="96,-104 60,-104 60,-124 96,-124 "
       id="polygon16-4-6"
       transform="matrix(4.1667,0,0,4.1667,-767.27771,1180.6366)" />
    <text
       text-anchor="start"
       x="-505.43683"
       y="723.133"
       font-family="Times, serif"
       font-size="58.3338px"
       fill="#000000"
       id="text18-7-3"
       style="stroke-width:4.1667">valor</text>
    <polygon
       fill="none"
       stroke="#000000"
       points="60,-84 8,-84 8,-104 60,-104 "
       id="polygon20-6-2"
       transform="matrix(4.1667,0,0,4.1667,-767.27771,1180.6366)" />
    <text
       text-anchor="start"
       x="-658.00977"
       y="806.46698"
       font-family="Times, serif"
       font-size="58.3338px"
       fill="#000000"
       id="text22-3-0"
       style="stroke-width:4.1667">ptr</text>
    <polygon
       fill="none"
       stroke="#000000"
       points="96,-84 60,-84 60,-104 96,-104 "
       id="polygon24-1-6"
       transform="matrix(4.1667,0,0,4.1667,-767.27771,1180.6366)" />
    <polygon
       fill="none"
       stroke="#000000"
       points="60,-64 8,-64 8,-84 60,-84 "
       id="polygon26-7-1"
       transform="matrix(4.1667,0,0,4.1667,-767.27771,1180.6366)" />
    <text
       text-anchor="start"
       x="-675.24268"
       y="889.80096"
       font-family="Times, serif"
       font-size="58.3338px"
       fill="#000000"
       id="text28-5-5"
       style="stroke-width:4.1667">long</text>
    <polygon
       fill="none"
       stroke="#000000"
       points="96,-64 60,-64 60,-84 96,-84 "
       id="polygon30-9-5"
       transform="matrix(4.1667,0,0,4.1667,-767.27771,1180.6366)" />
    <text
       text-anchor="start"
       x="-459.52832"
       y="889.80096"
       font-family="Times, serif"
       font-size="58.3338px"
       fill="#000000"
       id="text32-6-4"
       style="stroke-width:4.1667">5</text>
  </g>
</svg>
